<svg id="Group_6323" data-name="Group 6323" xmlns="http://www.w3.org/2000/svg" width="50" height="50" viewBox="0 0 50 50">
  <path id="Path_11351" data-name="Path 11351" d="M41.686,50H8.314A8.312,8.312,0,0,1,0,41.686V8.314A8.312,8.312,0,0,1,8.314,0h33.4A8.306,8.306,0,0,1,50,8.314v33.4A8.306,8.306,0,0,1,41.686,50Z" fill="#a4c439"/>
  <g id="Group_6323-2" data-name="Group 6323" transform="translate(10.494 7.529)">
    <path id="Path_11352" data-name="Path 11352" d="M52.6,67.2V80.717a2.469,2.469,0,0,0,2.471,2.471h1.6v4.884a2.064,2.064,0,1,0,4.128,0V83.188h3.11v4.884a2.064,2.064,0,1,0,4.128,0V83.188h1.6a2.469,2.469,0,0,0,2.471-2.471V67.2Z" transform="translate(-47.803 -55.194)" fill="#fff"/>
    <path id="Path_11353" data-name="Path 11353" d="M123.864,78.256h0a2.072,2.072,0,0,1-2.064-2.064V67.064A2.072,2.072,0,0,1,123.864,65h0a2.072,2.072,0,0,1,2.064,2.064v9.128A2.072,2.072,0,0,1,123.864,78.256Z" transform="translate(-96.887 -53.634)" fill="#fff"/>
    <path id="Path_11354" data-name="Path 11354" d="M38.164,78.256h0A2.072,2.072,0,0,1,36.1,76.192V67.064A2.072,2.072,0,0,1,38.164,65h0a2.072,2.072,0,0,1,2.064,2.064v9.128A2.072,2.072,0,0,1,38.164,78.256Z" transform="translate(-36.1 -53.634)" fill="#fff"/>
    <path id="Path_11355" data-name="Path 11355" d="M67.135,29.069l1.512-2.907-.494-.262-1.512,2.907a9.878,9.878,0,0,0-4.244-.959,10.138,10.138,0,0,0-4.3.959l-1.483-2.849-.523.262,1.483,2.849A9.42,9.42,0,0,0,52.6,37.3H72.135A9.447,9.447,0,0,0,67.135,29.069Z" transform="translate(-47.803 -25.9)" fill="#fff"/>
    <g id="Group_6322" data-name="Group 6322" transform="translate(9.041 5.465)">
      <circle id="Ellipse_413" data-name="Ellipse 413" cx="1.076" cy="1.076" r="1.076" transform="translate(8.866)" fill="#a4c439"/>
      <circle id="Ellipse_414" data-name="Ellipse 414" cx="1.076" cy="1.076" r="1.076" fill="#a4c439"/>
    </g>
  </g>
</svg>
