<svg xmlns="http://www.w3.org/2000/svg" width="50" height="49.9" viewBox="0 0 50 49.9">
  <g id="Group_6322" data-name="Group 6322" transform="translate(-10 -335.1)">
    <path id="Path_11318" data-name="Path 11318" d="M59.95,360.025v12.088a17.911,17.911,0,0,1-.6,5.145A10.572,10.572,0,0,1,50.26,384.8c-1.548.15-3.1.2-4.645.2H23.037a16.189,16.189,0,0,1-5.345-.649,10.343,10.343,0,0,1-7.343-8.342,31.972,31.972,0,0,1-.35-5.794V348.587a20.717,20.717,0,0,1,.5-5.295A10.487,10.487,0,0,1,19.74,335.3c1.6-.15,3.147-.2,4.745-.2H46.963a16.486,16.486,0,0,1,5.395.649,10.286,10.286,0,0,1,7.293,8.342,28.5,28.5,0,0,1,.35,5.445c-.05,3.5-.05,6.993-.05,10.49Z" fill="#3a6ab3"/>
    <path id="Path_11319" data-name="Path 11319" d="M59.968,368.833A16.184,16.184,0,1,1,43.884,352.6,16.191,16.191,0,0,1,59.968,368.833Z" transform="translate(-8.809 -8.758)" fill="#fff"/>
    <path id="Path_11320" data-name="Path 11320" d="M57.6,417.7H60v.05c-.8,0-1.6,0-2.4-.05Z" transform="translate(-23.824 -41.341)" fill="#3b68b2"/>
    <path id="Path_11321" data-name="Path 11321" d="M59.97,369.935A15.085,15.085,0,1,1,44.885,354.8,15.029,15.029,0,0,1,59.97,369.935Z" transform="translate(-9.91 -9.86)" fill="#3a6ab3"/>
    <path id="Path_11322" data-name="Path 11322" d="M52.2,385.639c0-.4.3-.649.45-1,.45-.8.849-1.548,1.3-2.3.1-.2.2-.4.5-.35h3.6a.454.454,0,0,1,.35.15c.2,0,.25.15.35.3.4.9,1.049,1.7,1.449,2.6.1.2.25.35.1.549v.1c-.1.1-.25.05-.35.05H52.5C52.45,385.689,52.3,385.689,52.2,385.639Z" transform="translate(-21.121 -23.466)" fill="#feffff"/>
    <path id="Path_11323" data-name="Path 11323" d="M50.591,377.933a1.092,1.092,0,0,0-.15.25c-1.3,2.248-2.647,4.5-3.9,6.793-.25.4-.5.45-.8.25-.549-.3-1.4-.549-1.449-1-.05-.6.5-1.2.849-1.8.549-.949,1.1-1.948,1.7-2.9.549-.9,1.1-1.8,1.6-2.7.1-.2.2-.2.4-.1.549.3,1.1.649,1.648.949C50.491,377.733,50.591,377.783,50.591,377.933Z" transform="translate(-17.164 -20.805)" fill="#fff"/>
    <path id="Path_11324" data-name="Path 11324" d="M61.5,372.982c-.849-1.848-1.748-3.7-2.6-5.544-.35-.749-.649-1.548-.949-2.3-.1-.25-.3-.6.05-.8s.6.15.749.4c.6.9,1.249,1.848,1.848,2.8q1.8,2.847,3.447,5.844c.4.2.45.6.6.949.05.15-.1.3-.25.4a9.277,9.277,0,0,1-.949.549c-.549.3-.749.25-1.049-.3a12.422,12.422,0,0,1-.749-1.4A.725.725,0,0,1,61.5,372.982Z" transform="translate(-23.926 -14.605)" fill="#fff"/>
    <path id="Path_11325" data-name="Path 11325" d="M70.833,382.1c0-.2.15-.2.3-.2H74.38c.3,0,.4.1.35.4v2.9c0,.15.05.35-.15.35a6.224,6.224,0,0,1-2.148-.1.476.476,0,0,1-.4-.4c-.35-.849-.8-1.648-1.2-2.448C70.833,382.449,70.683,382.3,70.833,382.1Z" transform="translate(-30.414 -23.423)" fill="#fefeff"/>
    <path id="Path_11326" data-name="Path 11326" d="M41.3,385.6v-3.2c0-.25,0-.4.35-.4H45c-.7,1.249-1.4,2.448-2.048,3.646A3.678,3.678,0,0,1,41.3,385.6Z" transform="translate(-15.666 -23.473)" fill="#fefeff"/>
    <path id="Path_11327" data-name="Path 11327" d="M74.914,394.32a1.066,1.066,0,0,1-.8.949.791.791,0,0,1-1.049-.35,23.215,23.215,0,0,1-1.5-3.447c-.1-.2.05-.25.2-.35.949-.549.949-.549,1.548.35.5.7.949,1.449,1.4,2.148A1.852,1.852,0,0,1,74.914,394.32Z" transform="translate(-30.798 -27.851)" fill="#fefeff"/>
    <path id="Path_11328" data-name="Path 11328" d="M53.19,373.929c.3-.5.549-1,.849-1.449a.26.26,0,0,1,.4-.05c.549.3,1.1.649,1.648.949a.3.3,0,0,1,.15.45c-.1.2-.25.35-.35.549-.649,1-.649,1-1.648.4-.25-.15-.549-.3-.8-.45C53.29,374.228,53.14,374.178,53.19,373.929Z" transform="translate(-21.612 -18.649)" fill="#fdfeff"/>
    <path id="Path_11329" data-name="Path 11329" d="M70.715,387.083c.1.35-.15.45-.4.6-.849.5-.849.5-1.349-.3-.05-.1-.15-.15-.2-.25-.35-.15-.45-.5-.649-.749-.15-.3-.1-.5.2-.6.4-.2.749-.4,1.1-.6.2-.1.45-.2.549,0A3.556,3.556,0,0,1,70.715,387.083Z" transform="translate(-29.047 -25.009)" fill="#fdfeff"/>
    <path id="Path_11330" data-name="Path 11330" d="M69.046,385.4a9.552,9.552,0,0,1-.8-1.6c-.15-.3-.25-.4-.5-.15-.05,0-.05.05-.1.05-.4.2-.949.35-1.1.649s.4.7.5,1.1c-.2.1-.3,0-.45-.05a28.788,28.788,0,0,1-1.9-3.447l.25-.25c.35.649.749,1.249,1.049,1.9.2.35.4.4.749.2,1.149-.549,1.149-.5.7-1.748.1-.15.2-.2.35-.05.6,1.049,1.1,2.2,1.6,3.3C69.345,385.546,69.2,385.6,69.046,385.4Z" transform="translate(-27.377 -23.323)" fill="#3b6ab3"/>
    <path id="Path_11331" data-name="Path 11331" d="M42.991,392.5a13.857,13.857,0,0,0,1.848,1.1c-.749.8-1.648,1.449-2.3,2.3a.24.24,0,0,1-.3.1c-.1-.05-.05-.15,0-.25C42.592,394.7,42.692,393.6,42.991,392.5Z" transform="translate(-16.108 -28.729)" fill="#fcfdfe"/>
    <path id="Path_11332" data-name="Path 11332" d="M58.029,371.395c0,.549-.2.7-.7.4-.35-.2-.749-.45-1.1-.649-.4-.15-.3-.35-.05-.549a.985.985,0,0,1,1.149-.2A1.064,1.064,0,0,1,58.029,371.395Z" transform="translate(-23.004 -17.614)" fill="#fafbfe"/>
    <path id="Path_11333" data-name="Path 11333" d="M52.2,389.3h8.142a.971.971,0,0,1-.649.15H52.849A3.048,3.048,0,0,1,52.2,389.3Z" transform="translate(-21.121 -27.127)" fill="#3a65b0"/>
    <path id="Path_11334" data-name="Path 11334" d="M41.3,389.2h1.648A2.1,2.1,0,0,1,41.3,389.2Z" transform="translate(-15.666 -27.077)" fill="#3a65b0"/>
  </g>
</svg>
